<svg width="14" height="14" viewBox="0 0 14 14" fill="none" xmlns="http://www.w3.org/2000/svg">
<path d="M13.207 10.6504L11 12.8574L10.293 12.1504L11.293 11.1504H8.5V10.1504H11.293L10.293 9.15039L11 8.44238L13.207 10.6504Z" fill="#353C49"/>
<path fill-rule="evenodd" clip-rule="evenodd" d="M11.5 1.5C12.0523 1.5 12.5 1.94772 12.5 2.5V7H11.5V2.5H9.5V4.5H4.5V2.5H2.5V11.5H7V12.5H2.5C1.94772 12.5 1.5 12.0523 1.5 11.5V2.5C1.5 1.94772 1.94772 1.5 2.5 1.5H11.5ZM5.5 3.5H8.5V2.5H5.5V3.5Z" fill="#353C49"/>
<path d="M7.5 9.25H4.5V8.25H7.5V9.25Z" fill="#353C49"/>
<path d="M9.5 7.25H4.5V6.25H9.5V7.25Z" fill="#353C49"/>
</svg>
