<svg width="18" height="18" viewBox="0 0 18 18" fill="none" xmlns="http://www.w3.org/2000/svg">
<path d="M2 13C2 12.4477 2.44772 12 3 12H15C15.5523 12 16 12.4477 16 13V15C16 15.5523 15.5523 16 15 16H3C2.44772 16 2 15.5523 2 15V13Z" fill="#A9ABB0"/>
<path d="M3.5 7.5C3.5 4.46243 5.96243 2 9 2C12.0376 2 14.5 4.46243 14.5 7.5V12H3.5V7.5Z" fill="#E65364"/>
<path d="M4.75 7.00009C4.75 6.28945 4.96238 5.62407 5.3291 5.05185C5.73365 4.42077 6.32473 3.90425 7.02637 3.55283C7.27321 3.4294 7.57365 3.52966 7.69727 3.77646C7.82069 4.02331 7.72043 4.32375 7.47363 4.44736C6.91994 4.72475 6.47079 5.12395 6.1709 5.59189C5.90047 6.01386 5.75 6.49317 5.75 7.00009C5.75 7.27624 5.52614 7.50009 5.25 7.50009C4.97386 7.50009 4.75 7.27624 4.75 7.00009Z" fill="white"/>
<path d="M9 6C10.1046 6 11 6.89543 11 8C11 8.73976 10.5971 9.3835 10 9.72949V12H8V9.72949C7.4029 9.3835 7 8.73976 7 8C7 6.89543 7.89543 6 9 6Z" fill="#BB4553"/>
</svg>
