<svg width="18" height="18" viewBox="0 0 18 18" fill="none" xmlns="http://www.w3.org/2000/svg">
<path d="M2 13C2 12.4477 2.44772 12 3 12H15C15.5523 12 16 12.4477 16 13V15C16 15.5523 15.5523 16 15 16H3C2.44772 16 2 15.5523 2 15V13Z" fill="#A9ABB0"/>
<path d="M3.5 7.5C3.5 4.46243 5.96243 2 9 2L-nan -nanL9 2C12.0376 2 14.5 4.46243 14.5 7.5V12H3.5V7.5Z" fill="#E65364"/>
<path fill-rule="evenodd" clip-rule="evenodd" d="M7.69706 3.77609C7.82072 4.02299 7.72082 4.3234 7.47391 4.44706C6.92007 4.72445 6.47092 5.12378 6.17097 5.5918C5.90053 6.01378 5.75 6.49307 5.75 7C5.75 7.27614 5.52614 7.5 5.25 7.5C4.97386 7.5 4.75 7.27614 4.75 7C4.75 6.28936 4.96231 5.62444 5.32903 5.05222C5.73359 4.42098 6.32431 3.90443 7.02609 3.55294C7.27299 3.42928 7.5734 3.52918 7.69706 3.77609Z" fill="white"/>
<path d="M11 8C11 9.10457 10.1046 10 9 10C7.89543 10 7 9.10457 7 8C7 6.89543 7.89543 6 9 6C10.1046 6 11 6.89543 11 8Z" fill="#BB4553"/>
<path d="M8 9H10V12H8V9Z" fill="#BB4553"/>
</svg>
