<svg width="18" height="18" viewBox="0 0 18 18" fill="none" xmlns="http://www.w3.org/2000/svg">
<path d="M6.93369 2.31193C8.25647 1.90325 9.67072 1.89599 10.9976 2.29109L11.4768 2.43377L11.7622 1.47536L11.283 1.33267C9.76654 0.881137 8.15025 0.889425 6.6385 1.35649C5.12676 1.82355 3.78746 2.7284 2.78998 3.95663C1.79249 5.18486 1.18162 6.68129 1.03461 8.2567C0.8876 9.83211 1.21105 11.4157 1.96407 12.8073C2.71708 14.1989 3.86583 15.3359 5.26506 16.0746C6.66429 16.8133 8.25114 17.1205 9.82496 16.9574C11.3988 16.7942 12.8889 16.168 14.1068 15.158C15.3247 14.1479 16.2158 12.7994 16.6673 11.283L16.7516 11H15.7082C15.3129 12.3259 14.5335 13.505 13.4684 14.3882C12.4028 15.272 11.0989 15.8199 9.72184 15.9627C8.34475 16.1054 6.95625 15.8367 5.73193 15.1903C4.50761 14.5439 3.50245 13.549 2.84356 12.3314C2.18467 11.1138 1.90165 9.72809 2.03029 8.34961C2.15892 6.97113 2.69343 5.66175 3.56623 4.58705C4.43903 3.51235 5.61091 2.7206 6.93369 2.31193Z" fill="#636975"/>
<path d="M16 4.5H11.6667V5.5H14.2928L11.1667 8.62615L8.96297 6.42245L4.7929 10.5925L5.50001 11.2996L8.96297 7.83666L11.1667 10.0404L15 6.20701V8.83333H16V4.5Z" fill="#636975"/>
</svg>
