<svg width="18" height="18" viewBox="0 0 18 18" fill="none" xmlns="http://www.w3.org/2000/svg">
<path d="M9 7H5V6H9V7Z" fill="#353C49"/>
<path d="M5 9H9V8H5V9Z" fill="#353C49"/>
<path d="M13.5 10H12.5V11H13.5V10Z" fill="#353C49"/>
<path d="M12.5 12H13.5V13H12.5V12Z" fill="#353C49"/>
<path fill-rule="evenodd" clip-rule="evenodd" d="M12 7H15C15.5523 7 16 7.44772 16 8V16H2V3C2 2.44772 2.44772 2 3 2H11C11.5523 2 12 2.44772 12 3V7ZM11 3H3V15H5V12C5 11.4477 5.44772 11 6 11H8C8.55228 11 9 11.4477 9 12V15H10V8C10 7.44772 10.4477 7 11 7V3ZM8 15V12H6V15H8ZM15 8H11V15H15V8Z" fill="#353C49"/>
</svg>
