<svg width="24" height="24" viewBox="0 0 24 24" fill="none" xmlns="http://www.w3.org/2000/svg">
<path fill-rule="evenodd" clip-rule="evenodd" d="M9.25 7C9.25 4.23858 11.4886 2 14.25 2C17.0114 2 19.25 4.23858 19.25 7V14.75C19.25 18.7541 16.0041 22 12 22C7.99594 22 4.75 18.7541 4.75 14.75V6H5.75V14.75C5.75 18.2018 8.54822 21 12 21C15.4518 21 18.25 18.2018 18.25 14.75V7C18.25 4.79086 16.4591 3 14.25 3C12.0409 3 10.25 4.79086 10.25 7V14.25C10.25 15.2165 11.0335 16 12 16C12.9665 16 13.75 15.2165 13.75 14.25V8H14.75V14.25C14.75 15.7688 13.5188 17 12 17C10.4812 17 9.25 15.7688 9.25 14.25V7Z" fill="#353C49"/>
</svg>
