<svg width="48" height="48" viewBox="0 0 48 48" fill="none" xmlns="http://www.w3.org/2000/svg">
<g opacity="0.5">
<g clip-path="url(#clip0_2535_42745)">
<g clip-path="url(#clip1_2535_42745)">
<path d="M23 19H33C34.6569 19 36 20.3431 36 22V34C36 35.6569 34.6569 37 33 37H23V19Z" fill="#D1D5D9"/>
<path d="M12 14C12 12.3431 13.3431 11 15 11H26C27.6569 11 29 12.3431 29 14V37H15C13.3431 37 12 35.6569 12 34V14Z" fill="#BFC4C8"/>
<path d="M18.5 29H22.5C22.7652 29 23.0196 29.1054 23.2071 29.2929C23.3946 29.4804 23.5 29.7348 23.5 30V37H17.5V30C17.5 29.7348 17.6054 29.4804 17.7929 29.2929C17.9804 29.1054 18.2348 29 18.5 29Z" fill="white" fill-opacity="0.3"/>
<path d="M31.5039 30.0029C31.3713 30.0029 31.2441 29.9503 31.1504 29.8565C31.0566 29.7627 31.0039 29.6355 31.0039 29.5029V28.5029C31.0039 28.3703 31.0566 28.2431 31.1504 28.1494C31.2441 28.0556 31.3713 28.0029 31.5039 28.0029H32.5039C32.6365 28.0029 32.7637 28.0556 32.8575 28.1494C32.9512 28.2431 33.0039 28.3703 33.0039 28.5029V29.5029C33.0039 29.6355 32.9512 29.7627 32.8575 29.8565C32.7637 29.9503 32.6365 30.0029 32.5039 30.0029H31.5039ZM31.5039 26.0029C31.3713 26.0029 31.2441 25.9503 31.1504 25.8565C31.0566 25.7627 31.0039 25.6355 31.0039 25.5029V24.5029C31.0039 24.3703 31.0566 24.2431 31.1504 24.1494C31.2441 24.0556 31.3713 24.0029 31.5039 24.0029H32.5039C32.6365 24.0029 32.7637 24.0556 32.8575 24.1494C32.9512 24.2431 33.0039 24.3703 33.0039 24.5029V25.5029C33.0039 25.6355 32.9512 25.7627 32.8575 25.8565C32.7637 25.9503 32.6365 26.0029 32.5039 26.0029H31.5039Z" fill="white" fill-opacity="0.5"/>
<path d="M17 17.75C17 17.3358 17.3358 17 17.75 17H23.25C23.6642 17 24 17.3358 24 17.75C24 18.1642 23.6642 18.5 23.25 18.5H17.75C17.3358 18.5 17 18.1642 17 17.75Z" fill="white" fill-opacity="0.5"/>
<path d="M17 20.75C17 20.3358 17.3358 20 17.75 20H23.25C23.6642 20 24 20.3358 24 20.75C24 21.1642 23.6642 21.5 23.25 21.5H17.75C17.3358 21.5 17 21.1642 17 20.75Z" fill="white" fill-opacity="0.5"/>
<path d="M17.75 23C17.3358 23 17 23.3358 17 23.75C17 24.1642 17.3358 24.5 17.75 24.5H23.25C23.6642 24.5 24 24.1642 24 23.75C24 23.3358 23.6642 23 23.25 23H17.75Z" fill="white" fill-opacity="0.5"/>
</g>
</g>
<g clip-path="url(#clip2_2535_42745)">
<g clip-path="url(#clip3_2535_42745)">
<rect x="26" y="26" width="14" height="14" rx="7" fill="#D7DBE0"/>
<path d="M33 29.25C33.4142 29.25 33.75 29.5858 33.75 30V32.6494L35.7803 34.3535C36.0975 34.6197 36.139 35.0929 35.873 35.4102C35.6069 35.7274 35.1337 35.769 34.8164 35.5029L32.5176 33.5742C32.5024 33.5615 32.4885 33.5478 32.4746 33.5342C32.4723 33.5319 32.47 33.5296 32.4678 33.5273C32.4408 33.5002 32.4175 33.4706 32.3955 33.4404C32.3818 33.4216 32.3694 33.402 32.3574 33.3818C32.3438 33.3588 32.3313 33.3356 32.3203 33.3115C32.3117 33.2927 32.304 33.2735 32.2969 33.2539C32.2877 33.2285 32.2798 33.2029 32.2734 33.1768C32.2597 33.1199 32.25 33.0611 32.25 33V30C32.25 29.5859 32.5859 29.2502 33 29.25Z" fill="white"/>
</g>
</g>
</g>
<defs>
<clipPath id="clip0_2535_42745">
<rect width="32" height="32" fill="white" transform="translate(8 8)"/>
</clipPath>
<clipPath id="clip1_2535_42745">
<rect width="24" height="26" fill="white" transform="translate(12 11)"/>
</clipPath>
<clipPath id="clip2_2535_42745">
<rect width="16" height="16" fill="white" transform="translate(25 25)"/>
</clipPath>
<clipPath id="clip3_2535_42745">
<rect width="16" height="16" fill="white" transform="translate(25 25)"/>
</clipPath>
</defs>
</svg>
