<svg width="24" height="24" viewBox="0 0 24 24" fill="none" xmlns="http://www.w3.org/2000/svg">
<path d="M8 13H7V14H8V13Z" fill="#353C49"/>
<path fill-rule="evenodd" clip-rule="evenodd" d="M8 2.5H7V4H4C3.44772 4 3 4.44772 3 5V20C3 20.5523 3.44772 21 4 21H20C20.5523 21 21 20.5523 21 20V5C21 4.44772 20.5523 4 20 4H17V2.5H16V4H8V2.5ZM20 9V5H17V6.5H16V5H8V6.5H7V5H4V9H20ZM4 10V20H20V10H4Z" fill="#353C49"/>
<path d="M7 16H8V17H7V16Z" fill="#353C49"/>
<path d="M11.5 13H12.5V14H11.5V13Z" fill="#353C49"/>
<path d="M11.5 16H12.5V17H11.5V16Z" fill="#353C49"/>
<path d="M16 13H17V14H16V13Z" fill="#353C49"/>
<path d="M16 16H17V17H16V16Z" fill="#353C49"/>
</svg>
