<svg width="24" height="24" viewBox="0 0 24 24" fill="none" xmlns="http://www.w3.org/2000/svg">
<path d="M11 16.5H10V10.5H11V16.5Z" fill="white"/>
<path d="M14 16.5H13V10.5H14V16.5Z" fill="white"/>
<path fill-rule="evenodd" clip-rule="evenodd" d="M16.6025 3.00488C17.1067 3.05621 17.5 3.48233 17.5 4V6H21V7H19V20L18.9951 20.1025C18.9472 20.573 18.573 20.9472 18.1025 20.9951L18 21H6L5.89746 20.9951C5.42702 20.9472 5.05276 20.573 5.00488 20.1025L5 20V7H3V6H6.5V4C6.5 3.48233 6.89333 3.05621 7.39746 3.00488L7.5 3H16.5L16.6025 3.00488ZM6 20H18V7H6V20ZM7.5 6H16.5V4H7.5V6Z" fill="white"/>
</svg>
