<svg width="18" height="18" viewBox="0 0 18 18" fill="none" xmlns="http://www.w3.org/2000/svg">
<path d="M8.5 12.5H7.5V8H8.5V12.5Z" fill="#353C49"/>
<path d="M10.5 12.5H9.5V8H10.5V12.5Z" fill="#353C49"/>
<path fill-rule="evenodd" clip-rule="evenodd" d="M12.3525 2.00488C12.8567 2.05621 13.25 2.48232 13.25 3V4.5H16V5.5H14.5V15L14.4951 15.1025C14.4472 15.573 14.073 15.9472 13.6025 15.9951L13.5 16H4.5L4.39746 15.9951C3.92703 15.9472 3.55278 15.573 3.50488 15.1025L3.5 15V5.5H2V4.5H4.75V3C4.75 2.48232 5.14333 2.05621 5.64746 2.00488L5.75 2H12.25L12.3525 2.00488ZM4.5 15H13.5V5.5H4.5V15ZM5.75 4.5H12.25V3H5.75V4.5Z" fill="#353C49"/>
</svg>
