<svg width="24" height="24" viewBox="0 0 24 24" fill="none" xmlns="http://www.w3.org/2000/svg">
<path fill-rule="evenodd" clip-rule="evenodd" d="M4.00741 3.99805L2.94751 5.05709L4.94774 7.05639C3.07553 8.85027 2 10.9629 2 12C2 14 6 20 12 20C13.7291 20 15.2921 19.5017 16.6412 18.7444L17.8921 19.9948L18.9442 18.9345L4.00741 3.99805ZM13.5738 15.6785L11.8916 13.9971C10.8736 13.9427 10.0577 13.1271 10.0029 12.1092L8.32077 10.4279C8.1143 10.9104 8 11.4419 8 12C8 14.2091 9.79086 16 12 16C12.5588 16 13.0908 15.8854 13.5738 15.6785Z" fill="#C4C5C9"/>
<path d="M15.6833 13.5625C15.8872 13.0824 16 12.5544 16 12C16 9.79082 14.2091 7.99996 12 7.99996C11.4456 7.99996 10.9175 8.11276 10.4374 8.31667L7.36999 5.24928C8.71649 4.49552 10.2757 3.99996 12 3.99996C18 3.99996 22 9.99996 22 12C22 13.0359 20.9269 15.145 19.0585 16.9376L15.6833 13.5625Z" fill="#C4C5C9"/>
</svg>
