<svg width="24" height="24" viewBox="0 0 24 24" fill="none" xmlns="http://www.w3.org/2000/svg">
<g clip-path="url(#clip0_2535_47156)">
<path d="M18 22.001H6C5.20435 22.001 4.44129 21.6849 3.87868 21.1223C3.31607 20.5597 3 19.7966 3 19.001V5.00098C3 4.20533 3.31607 3.44227 3.87868 2.87966C4.44129 2.31705 5.20435 2.00098 6 2.00098H18H18.127H16L21 7.00098V19.001C21 19.7966 20.6839 20.5597 20.1213 21.1223C19.5587 21.6849 18.7956 22.001 18 22.001Z" fill="#F7BC09"/>
<path d="M21.001 7H17.501C17.1032 7 16.7216 6.84196 16.4403 6.56066C16.159 6.27936 16.001 5.89782 16.001 5.5V2L21.001 7Z" fill="black" fill-opacity="0.22"/>
<path d="M12.6251 13.0684C12.718 13.1608 12.867 13.166 12.9659 13.0801L13.7101 12.4336L15.9816 14.6943C15.8866 15.4313 15.259 16.001 14.4962 16.001H9.49622C8.66779 16.001 7.99622 15.3294 7.99622 14.501V13.1816L10.8683 11.3184L12.6251 13.0684ZM14.4962 8.00098C15.3246 8.00098 15.9962 8.67255 15.9962 9.50098V14.0039L13.8976 11.916C13.8047 11.8236 13.6567 11.8184 13.5577 11.9043L12.8136 12.5508L11.0773 10.8223C10.9939 10.7393 10.8645 10.7253 10.7657 10.7891L7.99622 12.585V9.50098C7.99622 8.67255 8.66779 8.00098 9.49622 8.00098H14.4962ZM14.4962 10.001C14.2201 10.001 13.9962 10.2248 13.9962 10.501C13.9962 10.7771 14.2201 11.001 14.4962 11.001C14.7724 11.001 14.9962 10.7771 14.9962 10.501C14.9962 10.2248 14.7724 10.001 14.4962 10.001Z" fill="white"/>
</g>
<defs>
<clipPath id="clip0_2535_47156">
<rect width="24" height="24" fill="white"/>
</clipPath>
</defs>
</svg>
