<svg width="18" height="18" viewBox="0 0 18 18" fill="none" xmlns="http://www.w3.org/2000/svg">
<path d="M17 9C17 13.4183 13.4183 17 9 17C4.58172 17 1 13.4183 1 9C1 4.58172 4.58172 1 9 1C13.4183 1 17 4.58172 17 9Z" fill="#636975"/>
<path d="M9.02589 5.65733C9.02754 5.82053 9.07745 5.97958 9.16931 6.11447C9.26118 6.24936 9.39089 6.35406 9.54213 6.41537C9.69338 6.47668 9.85939 6.49187 10.0192 6.45903C10.1791 6.42618 10.3257 6.34677 10.4405 6.23079C10.5553 6.11481 10.6333 5.96744 10.6645 5.80726C10.6958 5.64708 10.6789 5.48123 10.616 5.33061C10.5532 5.17998 10.4472 5.05132 10.3114 4.96081C10.1756 4.87031 10.0161 4.82202 9.85288 4.82201C9.74282 4.81924 9.63334 4.83901 9.5312 4.88012C9.42906 4.92122 9.33641 4.98279 9.25895 5.06103C9.18149 5.13927 9.12084 5.23254 9.08076 5.33508C9.04068 5.43763 9.02201 5.5473 9.02589 5.65733ZM7.18715 8.54754C7.17735 8.71062 7.17735 8.87416 7.18715 9.03725L7.90867 8.15807C8.05799 7.99309 8.23024 7.87719 8.319 7.90852C8.36243 7.92747 8.39722 7.96196 8.41654 8.00523C8.43585 8.04849 8.43831 8.09742 8.42342 8.1424L7.22893 12.1457C7.19389 12.2644 7.1867 12.3897 7.20796 12.5117C7.22922 12.6337 7.27834 12.7491 7.35148 12.849C7.42462 12.9489 7.5198 13.0306 7.62966 13.0877C7.73952 13.1449 7.8611 13.1759 7.98489 13.1784C8.91314 13.1784 9.46444 12.5425 10.0074 11.7165C10.0221 11.5485 10.0263 11.3797 10.0199 11.2112L9.29843 12.0903C9.14912 12.2564 8.96325 12.3723 8.8745 12.3399C8.83455 12.3234 8.80152 12.2936 8.78098 12.2555C8.76043 12.2175 8.75364 12.1735 8.76173 12.1311L9.9646 8.10796C9.99669 7.98994 10.002 7.86623 9.98012 7.74589C9.95825 7.62556 9.90975 7.51164 9.83819 7.41246C9.76663 7.31327 9.67381 7.23134 9.56651 7.17264C9.45921 7.11395 9.34015 7.07997 9.21804 7.07321C8.74603 7.07321 8.39559 7.34024 8.04569 7.59425C7.70188 7.93806 7.40328 8.17305 7.18715 8.54754Z" fill="white"/>
</svg>
