<svg width="18" height="18" viewBox="0 0 18 18" fill="none" xmlns="http://www.w3.org/2000/svg">
<path d="M6 15.5C6 15.2239 6.22386 15 6.5 15H11.5C11.7761 15 12 15.2239 12 15.5V16.5C12 16.7761 11.7761 17 11.5 17H6.5C6.22386 17 6 16.7761 6 16.5V15.5Z" fill="#7E8996"/>
<path fill-rule="evenodd" clip-rule="evenodd" d="M8.99999 1C7.88185 1 6.78631 1.30656 5.84487 1.91948C5.18078 2.35183 4.60226 2.92201 4.14258 3.59721C3.68291 4.27242 3.35116 5.03932 3.16642 5.85379C2.98168 6.66826 2.95455 7.37654 3.06616 8.343C3.19271 9.43887 3.83351 10.0914 4.47781 10.7475C5.20585 11.4888 5.93836 12.2347 5.93836 13.63C5.93836 13.7236 5.95608 13.7968 5.97394 13.8705C5.98404 13.9122 5.99418 13.9541 6.00119 14H9H11.9988C12.0058 13.9541 12.016 13.9122 12.0261 13.8705C12.0439 13.7968 12.0616 13.7236 12.0616 13.63C12.0616 12.2347 12.7941 11.4888 13.5222 10.7475C14.1665 10.0914 14.8073 9.43887 14.9338 8.343C15.0455 7.37654 15.0183 6.66826 14.8336 5.85379C14.6488 5.03932 14.3171 4.27242 13.8574 3.59721C13.3977 2.92201 12.8192 2.35183 12.1551 1.91948C11.2137 1.30656 10.1181 1 8.99999 1Z" fill="#FFDD21"/>
<path d="M5 13.5C5 13.2239 5.22386 13 5.5 13H12.5C12.7761 13 13 13.2239 13 13.5V14.5C13 14.7761 12.7761 15 12.5 15H5.5C5.22386 15 5 14.7761 5 14.5V13.5Z" fill="#B0B5BF"/>
<path fill-rule="evenodd" clip-rule="evenodd" d="M11 7.5C10.7239 7.5 10.5 7.72386 10.5 8V8.5H11C11.2761 8.5 11.5 8.27614 11.5 8C11.5 7.72386 11.2761 7.5 11 7.5ZM10.5 9.5H11C11.8284 9.5 12.5 8.82843 12.5 8C12.5 7.17157 11.8284 6.5 11 6.5C10.1716 6.5 9.5 7.17157 9.5 8V8.5H9V9.5H9.5V13H10.5V9.5Z" fill="#E5A700"/>
<path fill-rule="evenodd" clip-rule="evenodd" d="M7 7.5C7.27614 7.5 7.5 7.72386 7.5 8V8.5H7C6.72386 8.5 6.5 8.27614 6.5 8C6.5 7.72386 6.72386 7.5 7 7.5ZM7.5 9.5H7C6.17157 9.5 5.5 8.82843 5.5 8C5.5 7.17157 6.17157 6.5 7 6.5C7.82843 6.5 8.5 7.17157 8.5 8V8.5H9V9.5H8.5V13H7.5V9.5Z" fill="#E5A700"/>
</svg>
