<svg width="18" height="18" viewBox="0 0 18 18" fill="none" xmlns="http://www.w3.org/2000/svg">
<path d="M2 5.99994C2 5.44766 2.44772 4.99994 3 4.99994H8V11.9999H3C2.44772 11.9999 2 11.5522 2 10.9999V5.99994Z" fill="#4480F0"/>
<path d="M7 11.4999C7 11.2238 7.22386 10.9999 7.5 10.9999H8.5C8.77614 10.9999 9 11.2238 9 11.4999V15.4999C9 15.7761 8.77614 15.9999 8.5 15.9999H7.5C7.22386 15.9999 7 15.7761 7 15.4999V11.4999Z" fill="#435F91"/>
<path d="M16 14.0363V3.00123C16 2.67566 15.6938 2.43693 15.3781 2.51632L5.87808 4.90488C5.65581 4.96077 5.5 5.16061 5.5 5.38979V11.6115C5.5 11.8401 5.65493 12.0395 5.87635 12.096L15.3763 14.5208C15.6925 14.6015 16 14.3626 16 14.0363Z" fill="#A1BFF7"/>
</svg>
