<svg width="18" height="18" viewBox="0 0 18 18" fill="none" xmlns="http://www.w3.org/2000/svg">
<path d="M9 3.00003H3V15H15V9.00003H16V15C16 15.5523 15.5523 16 15 16H3C2.44772 16 2 15.5523 2 15V3.00003C2.00003 2.44778 2.44774 2.00003 3 2.00003H9V3.00003Z" fill="#353C49"/>
<path fill-rule="evenodd" clip-rule="evenodd" d="M12.5166 2.22464C12.8164 1.92508 13.3027 1.92516 13.6025 2.22464L15.7754 4.39749C16.0749 4.69736 16.075 5.18359 15.7754 5.48343L9.4834 11.7754L9.36621 11.8711C9.24105 11.9545 9.09306 12 8.94043 12H6.76758L6.68945 11.9961C6.32802 11.9594 6.04062 11.672 6.00391 11.3106L6 11.2325V9.0596C6.00008 8.85608 6.08072 8.66058 6.22461 8.51663L12.5166 2.22464ZM7 9.1553V11H8.84473L13.0684 6.77542L11.2236 4.9307L7 9.1553ZM11.9307 4.22366L13.7754 6.06839L14.9043 4.94046L13.0596 3.09573L11.9307 4.22366Z" fill="#353C49"/>
</svg>
