<svg width="24" height="24" viewBox="0 0 24 24" fill="none" xmlns="http://www.w3.org/2000/svg">
<g clip-path="url(#clip0_2535_47150)">
<path d="M18 22H6C5.20435 22 4.44129 21.6839 3.87868 21.1213C3.31607 20.5587 3 19.7956 3 19V5C3 4.20435 3.31607 3.44129 3.87868 2.87868C4.44129 2.31607 5.20435 2 6 2H18H18.127H16L21 7V19C21 19.7956 20.6839 20.5587 20.1213 21.1213C19.5587 21.6839 18.7956 22 18 22Z" fill="#F45F5F"/>
<path d="M21.001 7H17.501C17.1032 7 16.7216 6.84196 16.4403 6.56066C16.159 6.27936 16.001 5.89782 16.001 5.5V2L21.001 7Z" fill="black" fill-opacity="0.22"/>
<path d="M10.236 12.8458C10.541 12.2338 10.888 11.5458 11.165 10.8538L11.2741 10.5808C10.9057 9.53094 10.7739 8.41264 10.8881 7.30587C10.9277 7.20798 10.9976 7.12534 11.0876 7.07009C11.1776 7.01484 11.2829 6.98988 11.3881 6.99886H11.529H11.5551C11.8721 6.99386 12.021 7.40484 12.037 7.56484C12.0393 7.80699 12.008 8.04833 11.944 8.28188C11.9598 8.03391 11.924 7.78532 11.839 7.55184C11.708 7.25784 11.5831 7.08284 11.4711 7.05184C11.4311 7.08541 11.3987 7.12714 11.3761 7.17422C11.3536 7.22129 11.3412 7.27265 11.34 7.32485C11.3073 7.53293 11.2905 7.74324 11.29 7.95388C11.3056 8.57223 11.4013 9.18596 11.5741 9.77987C11.6091 9.67987 11.64 9.57988 11.664 9.47988C11.703 9.33088 11.9469 8.34786 11.9469 8.34786C11.9469 8.34786 11.885 9.65687 11.799 10.0479C11.78 10.1309 11.7609 10.2139 11.7389 10.2989C12.0257 11.1445 12.5051 11.912 13.1391 12.5409C13.1391 12.5409 13.6701 12.9459 13.9501 13.1109C14.4947 13.0265 15.045 12.984 15.5961 12.9838C16.0392 12.9385 16.4846 13.0405 16.8639 13.2739C16.9484 13.3613 16.9983 13.4764 17.0041 13.5979C17.0008 13.6613 16.9914 13.7242 16.976 13.7858C16.983 13.7518 16.9831 13.5859 16.4831 13.4199C15.8171 13.2905 15.1333 13.281 14.464 13.3919C15.1618 13.8327 15.9788 14.0475 16.8031 14.0069C16.8698 13.9608 16.9276 13.9033 16.974 13.8369C16.9511 13.9478 16.9175 14.0563 16.8739 14.1608C16.8115 14.242 16.7258 14.3021 16.6281 14.3328C15.5874 14.3558 14.5642 14.0622 13.694 13.4909C12.4132 13.6919 11.1513 13.9986 9.92106 14.4079C8.82106 16.3719 8.00098 17.2748 7.33097 16.9318L7.08415 16.8048C7.03931 16.7667 7.00651 16.7162 6.99015 16.6597C6.9738 16.6031 6.97455 16.543 6.99211 16.4868C7.07011 16.0958 7.54913 15.5068 8.51213 14.9188C8.61213 14.8548 9.07707 14.6049 9.07707 14.6049C9.07707 14.6049 8.73495 14.9438 8.65495 15.0098C8.04205 15.4485 7.58066 16.0666 7.33415 16.7788V16.8059C7.98715 16.7109 8.96602 15.3509 10.225 12.8319M10.6249 13.0409C10.4149 13.4409 10.2089 13.8209 10.0199 14.1659C11.0677 13.7362 12.1588 13.4204 13.2741 13.2238C13.1301 13.1238 12.9891 13.0139 12.8581 12.8989C12.2827 12.3888 11.8163 11.7677 11.487 11.0728C11.2452 11.7474 10.9577 12.4046 10.6261 13.0399" fill="white"/>
<path d="M10.236 12.8458C10.541 12.2338 10.888 11.5458 11.165 10.8538L11.2741 10.5808C10.9057 9.53094 10.7739 8.41264 10.8881 7.30587C10.9277 7.20798 10.9976 7.12534 11.0876 7.07009C11.1776 7.01484 11.2829 6.98988 11.3881 6.99886H11.529H11.5551C11.8721 6.99386 12.021 7.40484 12.037 7.56484C12.0393 7.80699 12.008 8.04833 11.944 8.28188C11.9598 8.03391 11.924 7.78532 11.839 7.55184C11.708 7.25784 11.5831 7.08284 11.4711 7.05184C11.4311 7.08541 11.3987 7.12714 11.3761 7.17422C11.3536 7.22129 11.3412 7.27265 11.34 7.32485C11.3073 7.53293 11.2905 7.74324 11.29 7.95388C11.3056 8.57223 11.4013 9.18596 11.5741 9.77987C11.6091 9.67987 11.64 9.57988 11.664 9.47988C11.703 9.33088 11.9469 8.34786 11.9469 8.34786C11.9469 8.34786 11.885 9.65687 11.799 10.0479C11.78 10.1309 11.7609 10.2139 11.7389 10.2989C12.0257 11.1445 12.5051 11.912 13.1391 12.5409C13.1391 12.5409 13.6701 12.9459 13.9501 13.1109C14.4947 13.0265 15.045 12.984 15.5961 12.9838C16.0392 12.9385 16.4846 13.0405 16.8639 13.2739C16.9484 13.3613 16.9983 13.4764 17.0041 13.5979C17.0008 13.6613 16.9914 13.7242 16.976 13.7858C16.983 13.7518 16.9831 13.5859 16.4831 13.4199C15.8171 13.2905 15.1333 13.281 14.464 13.3919C15.1618 13.8327 15.9788 14.0475 16.8031 14.0069C16.8698 13.9608 16.9276 13.9033 16.974 13.8369C16.9511 13.9478 16.9175 14.0563 16.8739 14.1608C16.8115 14.242 16.7258 14.3021 16.6281 14.3328C15.5874 14.3558 14.5642 14.0622 13.694 13.4909C12.4132 13.6919 11.1513 13.9986 9.92106 14.4079C8.82106 16.3719 8.00098 17.2748 7.33097 16.9318L7.08415 16.8048C7.03931 16.7667 7.00651 16.7162 6.99015 16.6597C6.9738 16.6031 6.97455 16.543 6.99211 16.4868C7.07011 16.0958 7.54913 15.5068 8.51213 14.9188C8.61213 14.8548 9.07707 14.6049 9.07707 14.6049C9.07707 14.6049 8.73495 14.9438 8.65495 15.0098C8.04205 15.4485 7.58066 16.0666 7.33415 16.7788V16.8059C7.98715 16.7109 8.96602 15.3509 10.225 12.8319M10.6249 13.0409C10.4149 13.4409 10.2089 13.8209 10.0199 14.1659C11.0677 13.7362 12.1588 13.4204 13.2741 13.2238C13.1301 13.1238 12.9891 13.0139 12.8581 12.8989C12.2827 12.3888 11.8163 11.7677 11.487 11.0728C11.2452 11.7474 10.9577 12.4046 10.6261 13.0399" stroke="white" stroke-width="0.3" stroke-miterlimit="10" stroke-linecap="round" stroke-linejoin="round"/>
</g>
<defs>
<clipPath id="clip0_2535_47150">
<rect width="24" height="24" fill="white"/>
</clipPath>
</defs>
</svg>
