<svg width="24" height="24" viewBox="0 0 24 24" fill="none" xmlns="http://www.w3.org/2000/svg">
<g clip-path="url(#clip0_2535_47152)">
<path d="M18 22H6C5.20435 22 4.44129 21.6839 3.87868 21.1213C3.31607 20.5587 3 19.7956 3 19V5C3 4.20435 3.31607 3.44129 3.87868 2.87868C4.44129 2.31607 5.20435 2 6 2H18H18.127H16L21 7V19C21 19.7956 20.6839 20.5587 20.1213 21.1213C19.5587 21.6839 18.7956 22 18 22Z" fill="#F57654"/>
<path d="M21.001 7H17.501C17.1032 7 16.7216 6.84196 16.4403 6.56066C16.159 6.27936 16.001 5.89782 16.001 5.5V2L21.001 7Z" fill="black" fill-opacity="0.22"/>
<path d="M9.39301 16.0008V8.8428H11.712C12.2872 8.81955 12.8632 8.85541 13.431 8.9498C13.844 9.05912 14.2073 9.30605 14.461 9.6498C14.7518 10.0548 14.898 10.5457 14.876 11.0438C14.8886 11.4272 14.8065 11.8077 14.637 12.1518C14.4939 12.4325 14.2854 12.6747 14.029 12.8578C13.8038 13.0192 13.5489 13.1344 13.279 13.1968C12.7831 13.2757 12.281 13.3092 11.779 13.2968H10.837V16.0008H9.39301ZM10.838 10.0538V12.0848H11.629C12.0132 12.1065 12.3984 12.0687 12.771 11.9728C12.9543 11.9048 13.1122 11.7819 13.223 11.6208C13.3337 11.4565 13.391 11.2619 13.387 11.0638C13.3959 10.8274 13.314 10.5966 13.158 10.4188C13.0058 10.2497 12.8005 10.1375 12.576 10.1008C12.2311 10.0585 11.8834 10.0421 11.536 10.0518L10.838 10.0538Z" fill="white"/>
</g>
<defs>
<clipPath id="clip0_2535_47152">
<rect width="24" height="24" fill="white"/>
</clipPath>
</defs>
</svg>
