<svg width="24" height="24" viewBox="0 0 24 24" fill="none" xmlns="http://www.w3.org/2000/svg">
<path fill-rule="evenodd" clip-rule="evenodd" d="M15.7806 12C15.7806 14.2091 13.9898 16 11.7806 16C9.5715 16 7.78063 14.2091 7.78063 12C7.78063 9.79086 9.5715 8 11.7806 8C13.9898 8 15.7806 9.79086 15.7806 12ZM14.2806 12C14.2806 13.3807 13.1613 14.5 11.7806 14.5C10.3999 14.5 9.28063 13.3807 9.28063 12C9.28063 10.6193 10.3999 9.5 11.7806 9.5C13.1613 9.5 14.2806 10.6193 14.2806 12Z" fill="#353C49"/>
<path fill-rule="evenodd" clip-rule="evenodd" d="M8.78835 3.08413C8.87145 2.46342 9.40105 2 10.0273 2H13.972C14.5983 2 15.1279 2.46342 15.211 3.08413L15.4125 4.58934C15.893 4.82515 16.3473 5.10633 16.7697 5.42728L18.285 4.81229C18.8687 4.57542 19.5446 4.80309 19.8641 5.34414L21.8271 8.66857C22.1466 9.20961 22.0103 9.89585 21.5086 10.2716L20.0172 11.3889L20.0097 11.3793C20.025 11.5842 20.0327 11.7912 20.0327 12C20.0327 12.2089 20.025 12.416 20.0097 12.6209L20.0173 12.6112L21.5087 13.7285C22.0103 14.1042 22.1467 14.7905 21.8272 15.3315L19.8642 18.656C19.5447 19.197 18.8687 19.4247 18.2851 19.1878L16.7696 18.5728C16.3473 18.8937 15.893 19.1749 15.4125 19.4107L15.211 20.9159C15.1279 21.5366 14.5983 22 13.972 22H10.0273C9.40105 22 8.87145 21.5366 8.78835 20.9159L8.61483 19.6199C8.02143 19.3729 7.46306 19.0586 6.94927 18.6865L5.71417 19.1878C5.13053 19.4247 4.45454 19.197 4.13506 18.656L2.17205 15.3315C1.85258 14.7905 1.98892 14.1042 2.49054 13.7285L3.58242 12.9105C3.54959 12.6115 3.53274 12.3077 3.53274 12C3.53274 11.6923 3.54959 11.3885 3.58241 11.0895L2.49062 10.2716C1.989 9.89585 1.85267 9.20961 2.17214 8.66857L4.13515 5.34413C4.45463 4.80309 5.13061 4.57542 5.71426 4.81229L6.94922 5.31349C7.46303 4.94142 8.02141 4.62712 8.61483 4.38013L8.78835 3.08413ZM13.7408 3.25L14.1176 5.66472C14.9818 5.98334 15.7629 6.47377 16.4195 7.09457L18.8845 6.15369L20.6221 9.09637L18.4287 10.813C18.4971 11.1983 18.5327 11.595 18.5327 12C18.5327 12.405 18.4971 12.8017 18.4287 13.187L20.6221 14.9037L18.8845 17.8464L16.4195 16.9055C15.7629 17.5262 14.9818 18.0167 14.1176 18.3353L13.7408 20.75H10.2656L9.91253 18.4876C8.92076 18.2022 8.02268 17.6955 7.27519 17.0245L5.12193 17.8464L3.38434 14.9037L5.19668 13.4853C5.08937 13.0074 5.03274 12.5103 5.03274 12C5.03274 11.4897 5.08937 10.9926 5.19668 10.5147L3.38438 9.09637L5.12197 6.15369L7.27515 6.97556C8.02266 6.30451 8.92074 5.79784 9.91253 5.51245L10.2656 3.25H13.7408Z" fill="#353C49"/>
</svg>
