<svg width="32" height="32" viewBox="0 0 32 32" fill="none" xmlns="http://www.w3.org/2000/svg">
<g clip-path="url(#clip0_2535_39819)">
<path fill-rule="evenodd" clip-rule="evenodd" d="M13 15.75C15.0711 15.75 16.75 14.0711 16.75 12C16.75 9.92893 15.0711 8.25 13 8.25C10.9289 8.25 9.25 9.92893 9.25 12C9.25 14.0711 10.9289 15.75 13 15.75ZM13 17C15.7614 17 18 14.7614 18 12C18 9.23858 15.7614 7 13 7C10.2386 7 8 9.23858 8 12C8 14.7614 10.2386 17 13 17Z" fill="#353C49"/>
<path fill-rule="evenodd" clip-rule="evenodd" d="M17.0049 19H10.625C6.96611 19 4 21.9661 4 25.625V26.625H5.25V25.625C5.25 22.6565 7.65647 20.25 10.625 20.25H17.0049V19Z" fill="#353C49"/>
<path fill-rule="evenodd" clip-rule="evenodd" d="M19.2691 13.7405C21.2145 13.6025 22.7499 11.9806 22.7499 10C22.7499 7.92893 21.071 6.25 18.9999 6.25C18.2511 6.25 17.5535 6.46949 16.968 6.84765C16.613 6.57417 16.229 6.33657 15.8213 6.14025C16.6853 5.42787 17.7927 5 18.9999 5C21.7614 5 23.9999 7.23858 23.9999 10C23.9999 12.7614 21.7614 15 18.9999 15C18.9246 15 18.8497 14.9983 18.7751 14.995C18.9811 14.599 19.1475 14.1791 19.2691 13.7405Z" fill="#353C49"/>
<path d="M27.75 23.5C27.75 25.8472 25.8472 27.75 23.5 27.75C21.1528 27.75 19.25 25.8472 19.25 23.5C19.25 21.1528 21.1528 19.25 23.5 19.25C24.2089 19.25 24.8773 19.4236 25.465 19.7305L26.3631 18.8031C25.5291 18.2936 24.5488 18 23.5 18C20.4624 18 18 20.4624 18 23.5C18 26.5376 20.4624 29 23.5 29C26.5376 29 29 26.5376 29 23.5C29 22.9923 28.9312 22.5007 28.8025 22.034L27.7347 23.1367C27.7448 23.2565 27.75 23.3776 27.75 23.5Z" fill="#4480F0"/>
<path fill-rule="evenodd" clip-rule="evenodd" d="M29.4469 19.437L23.5051 25.513L20.9241 22.8839L21.8161 22.0082L23.5034 23.727L28.5531 18.563L29.4469 19.437Z" fill="#4480F0"/>
</g>
<defs>
<clipPath id="clip0_2535_39819">
<rect width="32" height="32" fill="white"/>
</clipPath>
</defs>
</svg>
