<svg width="32" height="32" viewBox="0 0 32 32" fill="none" xmlns="http://www.w3.org/2000/svg">
<path fill-rule="evenodd" clip-rule="evenodd" d="M16 14.5C18.3472 14.5 20.25 12.5972 20.25 10.25C20.25 7.90279 18.3472 6 16 6C13.6528 6 11.75 7.90279 11.75 10.25C11.75 12.5972 13.6528 14.5 16 14.5ZM16 16.5C19.4518 16.5 22.25 13.7018 22.25 10.25C22.25 6.79822 19.4518 4 16 4C12.5482 4 9.75 6.79822 9.75 10.25C9.75 13.7018 12.5482 16.5 16 16.5Z" fill="white"/>
<path fill-rule="evenodd" clip-rule="evenodd" d="M11 21C8.23858 21 6 23.2386 6 26V28H4V26C4 22.134 7.13401 19 11 19H21C24.866 19 28 22.134 28 26V28H26V26C26 23.2386 23.7614 21 21 21H11Z" fill="white"/>
</svg>
