<svg width="32" height="32" viewBox="0 0 32 32" fill="none" xmlns="http://www.w3.org/2000/svg">
<g clip-path="url(#clip0_2535_39820)">
<path fill-rule="evenodd" clip-rule="evenodd" d="M25.6086 15.9726C25.8527 15.7285 26.2484 15.7285 26.4925 15.9726L30.028 19.5081C30.2721 19.7522 30.2721 20.1479 30.028 20.392L28.4266 21.9934L26.5875 27.1417C26.5076 27.3654 26.3079 27.5244 26.072 27.5522L18.2176 28.477C18.0276 28.4993 17.8379 28.4335 17.7026 28.2982C17.5673 28.1629 17.5014 27.9732 17.5238 27.7832L18.4486 19.9288C18.4764 19.6929 18.6354 19.4932 18.859 19.4133L24.0068 17.5744L25.6086 15.9726ZM28.7022 19.9501L27.9598 20.6925L25.3081 18.0408L26.0505 17.2984L28.7022 19.9501ZM19.6447 20.46L24.2975 18.7979L27.2029 21.7033L25.5408 26.3561L20.1298 26.9932L21.9977 25.1253C22.6408 25.4125 23.4217 25.2923 23.9494 24.7646C24.6328 24.0811 24.6328 22.9731 23.9494 22.2897C23.2659 21.6063 22.1579 21.6063 21.4745 22.2897C20.9468 22.8174 20.8265 23.5983 21.1138 24.2414L18.944 26.4112L19.6447 20.46ZM18.8626 27.1022L18.8578 27.143L18.8986 27.1382L18.8626 27.1022ZM22.1816 22.9968C22.4745 22.7039 22.9494 22.7039 23.2422 22.9968C23.5351 23.2897 23.5351 23.7646 23.2422 24.0574C22.9494 24.3503 22.4745 24.3503 22.1816 24.0574C21.8887 23.7646 21.8887 23.2897 22.1816 22.9968Z" fill="#4480F0"/>
<path d="M22.7499 10C22.7499 11.9806 21.2145 13.6025 19.2691 13.7405C19.1475 14.1791 18.9811 14.599 18.7751 14.995C18.8497 14.9983 18.9246 15 18.9999 15C21.7614 15 23.9999 12.7614 23.9999 10C23.9999 7.23858 21.7614 5 18.9999 5C17.7927 5 16.6853 5.42787 15.8213 6.14025C16.229 6.33657 16.613 6.57417 16.968 6.84765C17.5535 6.46949 18.2511 6.25 18.9999 6.25C21.071 6.25 22.7499 7.92893 22.7499 10Z" fill="#353C49"/>
<path fill-rule="evenodd" clip-rule="evenodd" d="M13 17C15.7614 17 18 14.7614 18 12C18 9.23858 15.7614 7 13 7C10.2386 7 8 9.23858 8 12C8 14.7614 10.2386 17 13 17ZM13 15.75C15.0711 15.75 16.75 14.0711 16.75 12C16.75 9.92893 15.0711 8.25 13 8.25C10.9289 8.25 9.25 9.92893 9.25 12C9.25 14.0711 10.9289 15.75 13 15.75Z" fill="#353C49"/>
<path d="M16 19H10.625C6.96611 19 4 21.9661 4 25.625V26.625H5.25V25.625C5.25 22.6565 7.65647 20.25 10.625 20.25H16V19Z" fill="#353C49"/>
</g>
<defs>
<clipPath id="clip0_2535_39820">
<rect width="32" height="32" fill="white"/>
</clipPath>
</defs>
</svg>
