<svg width="14" height="14" viewBox="0 0 14 14" fill="none" xmlns="http://www.w3.org/2000/svg">
<path d="M2.78259 3.53267L1.55761 2.30769L2.26472 1.60059L11.4571 10.793L10.75 11.5001L8.82759 9.57767L7.03373 11.5001L5.2 9.49786C5.79024 9.04476 7.06136 8.42942 8.45777 9.20785L6.92551 7.6756C6.80799 7.68197 6.68965 7.69416 6.56982 7.71127C5.55543 7.85615 4.8739 8.36088 4.42321 8.75628L3.16938 7.23609C3.67524 6.79228 4.34773 6.29967 5.23712 5.9872L4.26383 5.01391C3.41881 5.36644 2.74702 5.83367 2.3086 6.23754L1 4.74931C1.43604 4.34763 2.0426 3.91235 2.78259 3.53267Z" fill="#636975"/>
<path d="M5.11688 2.69929L6.88832 4.47073C8.33315 4.46092 9.98245 4.91744 11.7021 6.23754L13 4.6925C10.1436 2.49976 7.35554 2.22105 5.11688 2.69929Z" fill="#636975"/>
<path d="M8.20968 5.7921L10.2977 7.88015L10.8416 7.23609C9.92873 6.4352 9.06103 5.98878 8.20968 5.7921Z" fill="#636975"/>
</svg>
