<svg width="24" height="24" viewBox="0 0 24 24" fill="none" xmlns="http://www.w3.org/2000/svg">
<g clip-path="url(#clip0_2535_47154)">
<path d="M18 22.001H6C5.20435 22.001 4.44129 21.6849 3.87868 21.1223C3.31607 20.5597 3 19.7966 3 19.001V5.00098C3 4.20533 3.31607 3.44227 3.87868 2.87966C4.44129 2.31705 5.20435 2.00098 6 2.00098H18H18.127H16L21 7.00098V19.001C21 19.7966 20.6839 20.5597 20.1213 21.1223C19.5587 21.6849 18.7956 22.001 18 22.001Z" fill="#A19893"/>
<path d="M21.001 7H17.501C17.1032 7 16.7216 6.84196 16.4403 6.56066C16.159 6.27936 16.001 5.89782 16.001 5.5V2L21.001 7Z" fill="black" fill-opacity="0.22"/>
<path d="M11.499 11.001H7.49902C7.36642 11.001 7.23924 10.9483 7.14547 10.8545C7.0517 10.7608 6.99902 10.6336 6.99902 10.501V2.00098H11.999V10.501C11.999 10.6336 11.9463 10.7608 11.8526 10.8545C11.7588 10.9483 11.6316 11.001 11.499 11.001ZM7.99902 9.00098V10.001H8.99902V9.00098H7.99902ZM9.99902 8.00098V9.00098H10.999V8.00098H9.99902ZM7.99902 7.00098V8.00098H8.99902V7.00098H7.99902ZM9.99902 6.00098V7.00098H10.999V6.00098H9.99902ZM7.99902 5.00098V6.00098H8.99902V5.00098H7.99902ZM9.99902 4.00098V5.00098H10.999V4.00098H9.99902ZM7.99902 3.00098V4.00098H8.99902V3.00098H7.99902Z" fill="#F1EFEE"/>
<path d="M9.99902 2.00098H8.99902V11.001H9.99902V2.00098Z" fill="#CBC6C4"/>
</g>
<defs>
<clipPath id="clip0_2535_47154">
<rect width="24" height="24" fill="white"/>
</clipPath>
</defs>
</svg>
