<svg width="48" height="12" viewBox="0 0 48 12" fill="none" xmlns="http://www.w3.org/2000/svg">
<path opacity="0.9" d="M0 0H48V4C48 8.41828 44.4183 12 40 12H8C3.58172 12 0 8.41828 0 4V0Z" fill="#F7BC09"/>
<path d="M19.5793 3.34375H20.4387V7.35156C20.4387 8.44531 19.7512 9.07812 18.7121 9.07812C17.7512 9.07812 17.0324 8.53906 17.0324 7.57812H17.884C17.8918 8.05469 18.2433 8.34375 18.7355 8.34375C19.2746 8.34375 19.5793 8 19.5793 7.35156V3.34375ZM21.3711 9V3.34375H23.3867C24.6992 3.34375 25.3477 4.13281 25.3477 5.17969C25.3477 6.21875 24.6992 7.01562 23.3867 7.01562H22.2305V9H21.3711ZM22.2305 6.28125H23.3008C24.1367 6.28125 24.4805 5.8125 24.4805 5.17969C24.4805 4.53906 24.1367 4.07812 23.3008 4.07812H22.2305V6.28125ZM29.8582 5.13281C29.6473 4.46094 29.1395 4.05469 28.3895 4.05469C27.4363 4.05469 26.702 4.80469 26.702 6.17188C26.702 7.53906 27.4285 8.28906 28.4285 8.28906C29.3309 8.28906 29.9285 7.71875 29.9442 6.8125H28.5535V6.10156H30.7801V6.74219C30.7801 8.17188 29.7957 9.07812 28.4207 9.07812C26.8895 9.07812 25.8504 7.96094 25.8504 6.17188C25.8504 4.36719 26.9207 3.26562 28.3817 3.26562C29.6082 3.26562 30.5457 4.03125 30.741 5.13281H29.8582Z" fill="white"/>
</svg>
