<svg width="48" height="12" viewBox="0 0 48 12" fill="none" xmlns="http://www.w3.org/2000/svg">
<path opacity="0.9" d="M0 0H48V4C48 8.41828 44.4183 12 40 12H8C3.58172 12 0 8.41828 0 4V0Z" fill="#A19893"/>
<path d="M18.7629 9V8.42969L21.7316 4.08594H18.7316V3.34375H22.7863V3.91406L19.8176 8.25781H22.8097V9H18.7629ZM24.4297 3.34375V9H23.5703V3.34375H24.4297ZM25.3621 9V3.34375H27.3778C28.6903 3.34375 29.3387 4.13281 29.3387 5.17969C29.3387 6.21875 28.6903 7.01562 27.3778 7.01562H26.2215V9H25.3621ZM26.2215 6.28125H27.2918C28.1278 6.28125 28.4715 5.8125 28.4715 5.17969C28.4715 4.53906 28.1278 4.07812 27.2918 4.07812H26.2215V6.28125Z" fill="white"/>
</svg>
