<svg width="48" height="12" viewBox="0 0 48 12" fill="none" xmlns="http://www.w3.org/2000/svg">
<path opacity="0.9" d="M0 0H48V4C48 8.41828 44.4183 12 40 12H8C3.58172 12 0 8.41828 0 4V0Z" fill="#F77E5D"/>
<path d="M14.9842 9V3.34375H16.9998C18.3123 3.34375 18.9607 4.13281 18.9607 5.17969C18.9607 6.21875 18.3123 7.01562 16.9998 7.01562H15.8435V9H14.9842ZM15.8435 6.28125H16.9138C17.7498 6.28125 18.0935 5.8125 18.0935 5.17969C18.0935 4.53906 17.7498 4.07812 16.9138 4.07812H15.8435V6.28125ZM19.651 9V3.34375H21.6666C22.9791 3.34375 23.6275 4.13281 23.6275 5.17969C23.6275 6.21875 22.9791 7.01562 21.6666 7.01562H20.5103V9H19.651ZM20.5103 6.28125H21.5807C22.4166 6.28125 22.7603 5.8125 22.7603 5.17969C22.7603 4.53906 22.4166 4.07812 21.5807 4.07812H20.5103V6.28125ZM24.0365 4.08594V3.34375H28.4193V4.08594H26.6615V9H25.8022V4.08594H24.0365ZM29.6799 3.34375L31.0237 5.54688H31.0705L32.4221 3.34375H33.4143L31.6487 6.17188L33.4299 9H32.4221L31.0705 6.82031H31.0237L29.6643 9H28.6643L30.469 6.17188L28.6721 3.34375H29.6799Z" fill="white"/>
</svg>
