<svg width="48" height="12" viewBox="0 0 48 12" fill="none" xmlns="http://www.w3.org/2000/svg">
<path opacity="0.9" d="M0 0H48V4C48 8.41828 44.4183 12 40 12H8C3.58172 12 0 8.41828 0 4V0Z" fill="#F45F5F"/>
<path d="M17.3566 9V3.34375H19.3722C20.6847 3.34375 21.3332 4.13281 21.3332 5.17969C21.3332 6.21875 20.6847 7.01562 19.3722 7.01562H18.216V9H17.3566ZM18.216 6.28125H19.2863C20.1222 6.28125 20.466 5.8125 20.466 5.17969C20.466 4.53906 20.1222 4.07812 19.2863 4.07812H18.216V6.28125ZM23.8594 9H22.0234V3.34375H23.9141C25.5781 3.34375 26.5781 4.40625 26.5781 6.16406C26.5781 7.92969 25.5781 9 23.8594 9ZM22.8828 8.25H23.8125C25.0938 8.25 25.7266 7.5 25.7266 6.16406C25.7266 4.83594 25.0938 4.09375 23.8594 4.09375H22.8828V8.25ZM27.3309 9V3.34375H30.8387V4.08594H28.1903V5.79688H30.5887V6.53125H28.1903V9H27.3309Z" fill="white"/>
</svg>
